<svg width="41" height="40" viewBox="0 0 41 40" fill="none" xmlns="http://www.w3.org/2000/svg">
<rect x="21.3334" y="24" width="5.33333" height="2" rx="1" fill="#8BC540"/>
<rect x="30.2221" y="24" width="5.33333" height="2" rx="1" fill="#8BC540"/>
<rect x="21.3334" y="29" width="5.33333" height="2" rx="1" fill="#8BC540"/>
<rect x="30.2221" y="29" width="5.33333" height="2" rx="1" fill="#8BC540"/>
<rect x="21.3334" y="19" width="5.33333" height="2" rx="1" fill="#8BC540"/>
<rect x="30.2221" y="19" width="5.33333" height="2" rx="1" fill="#8BC540"/>
<rect x="21.3334" y="14" width="5.33333" height="2" rx="1" fill="#8BC540"/>
<rect x="30.2221" y="14" width="5.33333" height="2" rx="1" fill="#8BC540"/>
<rect x="21.3334" y="9" width="5.33333" height="2" rx="1" fill="#8BC540"/>
<path d="M24 5H38C39.1046 5 40 5.89543 40 7V33C40 34.1046 39.1046 35 38 35H24" stroke="#8BC540" stroke-width="2" stroke-linejoin="bevel"/>
<rect x="30.2221" y="9" width="5.33333" height="2" rx="1" fill="#8BC540"/>
<path d="M0 5.69425C0 4.71658 0.706826 3.8822 1.6712 3.72147L21.6712 0.388133C22.8903 0.184956 24 1.12504 24 2.36092V37.6391C24 38.875 22.8903 39.815 21.6712 39.6119L1.6712 36.2785C0.706825 36.1178 0 35.2834 0 34.3057V5.69425Z" fill="#8BC540"/>
<path fill-rule="evenodd" clip-rule="evenodd" d="M6.3766 25.6744C5.95371 26.3767 5.93977 27.5395 6.34546 28.2716C6.75116 29.0037 7.42287 29.0278 7.84576 28.3255L11.5218 22.2206L16.1852 29.3747C16.6238 30.0475 17.2944 29.9775 17.6831 29.2182C18.0718 28.459 18.0313 27.2981 17.5927 26.6252L13.0583 19.6689L17.1791 12.8255C17.602 12.1232 17.6159 10.9604 17.2102 10.2283C16.8045 9.49625 16.1328 9.47212 15.7099 10.1744L11.4648 17.2243L7.81505 11.6252C7.37646 10.9524 6.70584 11.0224 6.31716 11.7817C5.92848 12.5409 5.96894 13.7018 6.40753 14.3747L9.92835 19.776L6.3766 25.6744Z" fill="white"/>
</svg>
