<?xml version="1.0" encoding="UTF-8" standalone="no"?>
<svg
   xmlns:dc="http://purl.org/dc/elements/1.1/"
   xmlns:cc="http://creativecommons.org/ns#"
   xmlns:rdf="http://www.w3.org/1999/02/22-rdf-syntax-ns#"
   xmlns:svg="http://www.w3.org/2000/svg"
   xmlns="http://www.w3.org/2000/svg"
   xmlns:sodipodi="http://sodipodi.sourceforge.net/DTD/sodipodi-0.dtd"
   xmlns:inkscape="http://www.inkscape.org/namespaces/inkscape"
   height="512px"
   style="enable-background:new 0 0 512 512;"
   version="1.1"
   viewBox="0 0 512 512"
   width="512px"
   xml:space="preserve"
   id="svg30"
   sodipodi:docname="4202106excellogomicrosoftms-115582_115719.svg"
   inkscape:version="0.92.5 (2060ec1f9f, 2020-04-08)"><metadata
     id="metadata36"><rdf:RDF><cc:Work
         rdf:about=""><dc:format>image/svg+xml</dc:format><dc:type
           rdf:resource="http://purl.org/dc/dcmitype/StillImage" /></cc:Work></rdf:RDF></metadata><defs
     id="defs34" /><sodipodi:namedview
     pagecolor="#ffffff"
     bordercolor="#666666"
     borderopacity="1"
     objecttolerance="10"
     gridtolerance="10"
     guidetolerance="10"
     inkscape:pageopacity="0"
     inkscape:pageshadow="2"
     inkscape:window-width="1920"
     inkscape:window-height="1025"
     id="namedview32"
     showgrid="false"
     inkscape:zoom="0.4609375"
     inkscape:cx="-174.64407"
     inkscape:cy="256"
     inkscape:window-x="0"
     inkscape:window-y="26"
     inkscape:window-maximized="1"
     inkscape:current-layer="g24" /><g
     id="_x37_9-excel"><g
       id="g26"><g
         id="g24"><path
           d="M330.564,181.244h-59.652c-8.23,0-14.91-6.699-14.91-14.954c0-8.253,6.68-14.951,14.91-14.951     h59.652c8.23,0,14.91,6.698,14.91,14.951C345.475,174.545,338.795,181.244,330.564,181.244L330.564,181.244z M330.564,181.244"
           style="fill:#83be35;fill-opacity:1"
           id="path4" /><path
           d="M330.564,241.057h-59.652c-8.23,0-14.91-6.697-14.91-14.956c0-8.247,6.68-14.947,14.91-14.947     h59.652c8.23,0,14.91,6.7,14.91,14.947C345.475,234.359,338.795,241.057,330.564,241.057L330.564,241.057z M330.564,241.057"
           style="fill:#83be35;fill-opacity:1"
           id="path6" /><path
           d="M330.564,300.866h-59.652c-8.23,0-14.91-6.7-14.91-14.949c0-8.255,6.68-14.954,14.91-14.954     h59.652c8.23,0,14.91,6.699,14.91,14.954C345.475,294.166,338.795,300.866,330.564,300.866L330.564,300.866z M330.564,300.866"
           style="fill:#83be35;fill-opacity:1"
           id="path8" /><path
           d="M330.564,360.683h-59.652c-8.23,0-14.91-6.698-14.91-14.953s6.68-14.954,14.91-14.954h59.652     c8.23,0,14.91,6.699,14.91,14.954S338.795,360.683,330.564,360.683L330.564,360.683z M330.564,360.683"
           style="fill:#83be35;fill-opacity:1"
           id="path10" /><path
           d="M420.039,181.244h-29.826c-8.23,0-14.914-6.699-14.914-14.954c0-8.253,6.684-14.951,14.914-14.951     h29.826c8.229,0,14.91,6.698,14.91,14.951C434.949,174.545,428.268,181.244,420.039,181.244L420.039,181.244z M420.039,181.244"
           style="fill:#83be35;fill-opacity:1"
           id="path12" /><path
           d="M420.039,241.057h-29.826c-8.23,0-14.914-6.697-14.914-14.956c0-8.247,6.684-14.947,14.914-14.947     h29.826c8.229,0,14.91,6.7,14.91,14.947C434.949,234.359,428.268,241.057,420.039,241.057L420.039,241.057z M420.039,241.057"
           style="fill:#83be35;fill-opacity:1"
           id="path14" /><path
           d="M420.039,300.866h-29.826c-8.23,0-14.914-6.7-14.914-14.949c0-8.255,6.684-14.954,14.914-14.954     h29.826c8.229,0,14.91,6.699,14.91,14.954C434.949,294.166,428.268,300.866,420.039,300.866L420.039,300.866z M420.039,300.866"
           style="fill:#83be35;fill-opacity:1"
           id="path16" /><path
           d="M420.039,360.683h-29.826c-8.23,0-14.914-6.698-14.914-14.953s6.684-14.954,14.914-14.954h29.826     c8.229,0,14.91,6.699,14.91,14.954S428.268,360.683,420.039,360.683L420.039,360.683z M420.039,360.683"
           style="fill:#83be35;fill-opacity:1"
           id="path18" /><path
           d="M280.428,35.153c-3.404-2.841-7.967-4.069-12.26-3.168L29.566,76.84     c-7.068,1.322-12.169,7.481-12.169,14.687v328.966c0,7.177,5.101,13.364,12.169,14.688l238.602,44.856     c0.893,0.177,1.818,0.271,2.744,0.271c3.459,0,6.828-1.199,9.516-3.445c3.432-2.836,5.393-7.083,5.393-11.512V46.671     C285.82,42.213,283.859,37.995,280.428,35.153L280.428,35.153z M280.428,35.153"
           style="fill:#83be35;fill-opacity:1"
           id="path20" /><path
           d="M222.479,305.983l-47.16-54.036l47.697-61.486c5.07-6.524,3.871-15.916-2.6-20.996     c-6.471-5.086-15.838-3.89-20.932,2.597l-44.175,56.943l-37.22-42.64c-5.456-6.287-14.883-6.854-21.028-1.407     c-6.201,5.438-6.83,14.887-1.401,21.08l41.011,47.011l-41.577,53.59c-5.072,6.522-3.877,15.916,2.592,20.997     c2.746,2.123,6,3.14,9.188,3.14c4.443,0,8.831-1.973,11.779-5.775l38.03-49.045l43.363,49.68     c2.955,3.406,7.07,5.141,11.213,5.141c3.492,0,6.984-1.227,9.82-3.712C227.281,321.627,227.904,312.177,222.479,305.983     L222.479,305.983z M222.479,305.983"
           style="fill:#FCFCFC;"
           id="path22" /></g></g></g><g
     id="Layer_1" /></svg>