<svg width="40" height="40" viewBox="0 0 40 40" fill="none" xmlns="http://www.w3.org/2000/svg">
<path d="M23.3334 5V11.6667C23.3334 12.1087 23.509 12.5326 23.8215 12.8452C24.1341 13.1577 24.558 13.3333 25 13.3333H31.6667" stroke="#8BC540" stroke-width="3" stroke-linecap="round" stroke-linejoin="round"/>
<path d="M28.3334 35H11.6667C10.7827 35 9.93481 34.6488 9.30968 34.0237C8.68456 33.3986 8.33337 32.5507 8.33337 31.6667V8.33333C8.33337 7.44928 8.68456 6.60143 9.30968 5.97631C9.93481 5.35119 10.7827 5 11.6667 5H23.3334L31.6667 13.3333V31.6667C31.6667 32.5507 31.3155 33.3986 30.6904 34.0237C30.0653 34.6488 29.2174 35 28.3334 35Z" stroke="#8BC540" stroke-width="3" stroke-linecap="round" stroke-linejoin="round"/>
<path d="M20 18.3333V28.3333" stroke="#8BC540" stroke-width="3" stroke-linecap="round" stroke-linejoin="round"/>
<path d="M15 23.3333L20 18.3333L25 23.3333" stroke="#8BC540" stroke-width="3" stroke-linecap="round" stroke-linejoin="round"/>
</svg>
