<?xml version="1.0" encoding="UTF-8" standalone="no"?>
<svg
   xmlns:sketch="http://www.bohemiancoding.com/sketch/ns"
   xmlns:dc="http://purl.org/dc/elements/1.1/"
   xmlns:cc="http://creativecommons.org/ns#"
   xmlns:rdf="http://www.w3.org/1999/02/22-rdf-syntax-ns#"
   xmlns:svg="http://www.w3.org/2000/svg"
   xmlns="http://www.w3.org/2000/svg"
   xmlns:sodipodi="http://sodipodi.sourceforge.net/DTD/sodipodi-0.dtd"
   xmlns:inkscape="http://www.inkscape.org/namespaces/inkscape"
   width="54px"
   height="64px"
   viewBox="0 0 54 64"
   version="1.1"
   id="svg25"
   sodipodi:docname="upload_icon_green.svg"
   inkscape:version="0.92.5 (2060ec1f9f, 2020-04-08)">
  <metadata
     id="metadata29">
    <rdf:RDF>
      <cc:Work
         rdf:about="">
        <dc:format>image/svg+xml</dc:format>
        <dc:type
           rdf:resource="http://purl.org/dc/dcmitype/StillImage" />
        <dc:title>Document-add</dc:title>
      </cc:Work>
    </rdf:RDF>
  </metadata>
  <sodipodi:namedview
     pagecolor="#ffffff"
     bordercolor="#666666"
     borderopacity="1"
     objecttolerance="10"
     gridtolerance="10"
     guidetolerance="10"
     inkscape:pageopacity="0"
     inkscape:pageshadow="2"
     inkscape:window-width="1920"
     inkscape:window-height="1025"
     id="namedview27"
     showgrid="false"
     inkscape:zoom="3.6875"
     inkscape:cx="-80.661016"
     inkscape:cy="32"
     inkscape:window-x="0"
     inkscape:window-y="26"
     inkscape:window-maximized="1"
     inkscape:current-layer="Page-1" />
  <!-- Generator: Sketch 3.0.3 (7891) - http://www.bohemiancoding.com/sketch -->
  <title
     id="title2">Document-add</title>
  <desc
     id="desc4">Created with Sketch.</desc>
  <defs
     id="defs6" />
  <g
     id="Page-1"
     stroke="none"
     stroke-width="1"
     fill="none"
     fill-rule="evenodd"
     sketch:type="MSPage">
    <g
       id="Document-add"
       sketch:type="MSLayerGroup"
       transform="translate(1.000000, 1.000000)"
       stroke="#6B6C6E"
       stroke-width="2"
       style="stroke:#8bc540;stroke-opacity:1">
      <path
         d="M47,57.9 L47,60 C47,61.1 46.1,62 45,62 L2,62 C0.9,62 0,61.1 0,60 L0,2 C0,0.9 0.9,0 2,0 L27.9,0 L47,18.1 L47,42"
         id="Shape"
         sketch:type="MSShapeGroup"
         style="stroke:#8bc540;stroke-opacity:1" />
      <path
         d="M9,17 L22,17"
         id="path9"
         sketch:type="MSShapeGroup"
         style="stroke:#8bc540;stroke-opacity:1" />
      <path
         d="M9,27 L41,27"
         id="path11"
         sketch:type="MSShapeGroup"
         style="stroke:#8bc540;stroke-opacity:1" />
      <path
         d="M9,34 L41,34"
         id="path13"
         sketch:type="MSShapeGroup"
         style="stroke:#8bc540;stroke-opacity:1" />
      <path
         d="M9,43 L35,43"
         id="path15"
         sketch:type="MSShapeGroup"
         style="stroke:#8bc540;stroke-opacity:1" />
      <path
         d="M9,49 L28,49"
         id="path17"
         sketch:type="MSShapeGroup"
         style="stroke:#8bc540;stroke-opacity:1" />
      <path
         d="M47,57.9 L47,52.9 L52,52.9 L52,47 L47.1,47 L47.1,42 L41.1,42 L41.1,47 L36,47 L36,52.9 L41,52.9 L41,57.9 L47,57.9 Z"
         id="path19"
         sketch:type="MSShapeGroup"
         style="stroke:#8bc540;stroke-opacity:1" />
      <path
         d="M47,18.9 L30,18.9 C28.9,18.9 28,18 28,16.9 L28,1"
         id="path21"
         sketch:type="MSShapeGroup"
         style="stroke:#8bc540;stroke-opacity:1" />
    </g>
  </g>
</svg>
